<svg width="1280" height="860" xmlns="http://www.w3.org/2000/svg" font-family="Roboto, Arial, sans-serif">
  <defs>
    <filter id="shadow">
      <feDropShadow dx="0" dy="2" stdDeviation="6" flood-color="#000" flood-opacity="0.08"/>
    </filter>
  </defs>

  <rect width="1280" height="860" fill="#F0F2F5"/>

  <!-- Sidebar -->
  <rect width="260" height="860" fill="#1A2332"/>
  <rect x="0" y="0" width="260" height="64" fill="#151D2B"/>
  <rect x="20" y="17" width="30" height="30" rx="6" fill="#1976D2"/>
  <text x="58" y="34" font-size="18" font-weight="700" fill="white">CondoGest</text>
  <text x="58" y="50" font-size="11" fill="#78909C">v1.0</text>
  <text x="58" y="109" font-size="14" fill="#90A4AE">Dashboard</text>
  <text x="58" y="157" font-size="14" fill="#90A4AE">Condomínios</text>
  <text x="58" y="205" font-size="14" fill="#90A4AE">Apartamentos</text>
  <text x="58" y="253" font-size="14" fill="#90A4AE">Financeiro</text>
  <text x="58" y="301" font-size="14" fill="#90A4AE">Grupos de Despesa</text>
  <!-- Rateio (active) -->
  <rect x="0" y="320" width="260" height="48" fill="#1976D2"/>
  <rect x="0" y="320" width="4" height="48" fill="#42A5F5"/>
  <text x="58" y="349" font-size="14" font-weight="500" fill="white">Rateio</text>
  <text x="58" y="397" font-size="14" fill="#90A4AE">Usuários</text>
  <rect x="0" y="796" width="260" height="64" fill="#151D2B"/>
  <circle cx="36" cy="828" r="18" fill="#1976D2"/>
  <text x="36" y="833" text-anchor="middle" font-size="14" font-weight="700" fill="white">JS</text>
  <text x="62" y="823" font-size="13" font-weight="600" fill="white">João Silva</text>
  <text x="62" y="839" font-size="11" fill="#78909C">Administrador</text>

  <!-- AppBar -->
  <rect x="260" y="0" width="1020" height="64" fill="white" filter="url(#shadow)"/>
  <text x="292" y="38" font-size="20" font-weight="600" fill="#1A2332">Histórico de Execuções de Rateio</text>
  <text x="292" y="55" font-size="11" fill="#90A4AE">Início  ›  Rateio  ›  Execuções</text>
  <rect x="870" y="16" width="220" height="32" rx="6" fill="#E3F2FD" stroke="#90CAF9" stroke-width="1"/>
  <text x="886" y="37" font-size="13" fill="#1A2332">Solar das Flores</text>
  <text x="1082" y="37" text-anchor="end" font-size="12" fill="#546E7A">▾</text>
  <circle cx="1230" cy="32" r="20" fill="#1976D2"/>
  <text x="1230" y="37" text-anchor="middle" font-size="13" font-weight="700" fill="white">JS</text>

  <!-- Summary cards -->
  <!-- Card 1 -->
  <rect x="280" y="80" width="220" height="76" rx="10" fill="white" filter="url(#shadow)"/>
  <text x="300" y="105" font-size="12" fill="#78909C">Total Execuções</text>
  <text x="300" y="132" font-size="26" font-weight="700" fill="#1A2332">147</text>
  <text x="300" y="148" font-size="11" fill="#78909C">últimos 30 dias</text>

  <!-- Card 2 -->
  <rect x="514" y="80" width="220" height="76" rx="10" fill="white" filter="url(#shadow)"/>
  <text x="534" y="105" font-size="12" fill="#78909C">Sucesso</text>
  <text x="534" y="132" font-size="26" font-weight="700" fill="#2E7D32">143</text>
  <text x="534" y="148" font-size="11" fill="#78909C">97,3%</text>

  <!-- Card 3 -->
  <rect x="748" y="80" width="220" height="76" rx="10" fill="white" filter="url(#shadow)"/>
  <text x="768" y="105" font-size="12" fill="#78909C">Com Erro</text>
  <text x="768" y="132" font-size="26" font-weight="700" fill="#C62828">4</text>
  <text x="768" y="148" font-size="11" fill="#78909C">2,7%</text>

  <!-- Card 4 -->
  <rect x="982" y="80" width="278" height="76" rx="10" fill="white" filter="url(#shadow)"/>
  <text x="1002" y="105" font-size="12" fill="#78909C">Último Automático</text>
  <text x="1002" y="132" font-size="15" font-weight="700" fill="#1A2332">02/06/2026 02:00</text>
  <rect x="1002" y="140" width="64" height="20" rx="10" fill="#E8F5E9"/>
  <text x="1034" y="154" text-anchor="middle" font-size="10" font-weight="600" fill="#2E7D32">SUCESSO</text>

  <!-- Filters toolbar -->
  <rect x="280" y="170" width="980" height="52" rx="10" fill="white" filter="url(#shadow)"/>
  <!-- Date range -->
  <rect x="296" y="182" width="180" height="28" rx="6" fill="#F4F6F9" stroke="#CFD8DC" stroke-width="1"/>
  <text x="316" y="200" font-size="12" fill="#90A4AE">De: 01/05/2026</text>
  <rect x="486" y="182" width="180" height="28" rx="6" fill="#F4F6F9" stroke="#CFD8DC" stroke-width="1"/>
  <text x="506" y="200" font-size="12" fill="#90A4AE">Até: 02/06/2026</text>
  <!-- Tipo filter -->
  <rect x="676" y="182" width="140" height="28" rx="6" fill="#F4F6F9" stroke="#CFD8DC" stroke-width="1"/>
  <text x="692" y="200" font-size="12" fill="#90A4AE">Tipo execução</text>
  <text x="808" y="200" text-anchor="end" font-size="12" fill="#90A4AE">▾</text>
  <!-- Status filter -->
  <rect x="826" y="182" width="130" height="28" rx="6" fill="#F4F6F9" stroke="#CFD8DC" stroke-width="1"/>
  <text x="842" y="200" font-size="12" fill="#90A4AE">Status</text>
  <text x="948" y="200" text-anchor="end" font-size="12" fill="#90A4AE">▾</text>
  <!-- Export button -->
  <rect x="1150" y="180" width="100" height="28" rx="6" fill="#ECEFF1"/>
  <text x="1200" y="199" text-anchor="middle" font-size="12" font-weight="500" fill="#546E7A">⬇ Exportar</text>

  <!-- Table -->
  <rect x="280" y="236" width="980" height="468" rx="12" fill="white" filter="url(#shadow)"/>
  <rect x="280" y="236" width="980" height="44" rx="12" fill="#F8FAFC"/>
  <rect x="280" y="258" width="980" height="22" fill="#F8FAFC"/>
  <text x="300" y="265" font-size="12" font-weight="600" fill="#546E7A">DATA/HORA</text>
  <text x="460" y="265" font-size="12" font-weight="600" fill="#546E7A">DESPESA</text>
  <text x="620" y="265" font-size="12" font-weight="600" fill="#546E7A">GRUPO</text>
  <text x="800" y="265" font-size="12" font-weight="600" fill="#546E7A">TIPO</text>
  <text x="900" y="265" font-size="12" font-weight="600" fill="#546E7A">COTAS</text>
  <text x="970" y="265" font-size="12" font-weight="600" fill="#546E7A">TOTAL (R$)</text>
  <text x="1100" y="265" font-size="12" font-weight="600" fill="#546E7A">STATUS</text>

  <!-- Row 1 — SUCESSO AUTOMATICO -->
  <line x1="280" y1="280" x2="1260" y2="280" stroke="#F0F2F5" stroke-width="1"/>
  <text x="300" y="307" font-size="13" fill="#546E7A">02/06 02:00</text>
  <text x="460" y="307" font-size="13" fill="#1A2332">Cond. Geral Jun/26</text>
  <text x="620" y="307" font-size="13" fill="#546E7A">Condomínio Geral</text>
  <rect x="790" y="293" width="88" height="22" rx="11" fill="#E3F2FD"/>
  <text x="834" y="308" text-anchor="middle" font-size="11" font-weight="600" fill="#1565C0">AUTOMÁTICO</text>
  <text x="900" y="307" font-size="13" fill="#1A2332">24</text>
  <text x="970" y="307" font-size="13" fill="#1A2332">18.450,00</text>
  <rect x="1090" y="293" width="70" height="22" rx="11" fill="#E8F5E9"/>
  <text x="1125" y="308" text-anchor="middle" font-size="11" font-weight="600" fill="#2E7D32">SUCESSO</text>

  <!-- Row 2 — SUCESSO AUTOMATICO -->
  <line x1="280" y1="328" x2="1260" y2="328" stroke="#F0F2F5" stroke-width="1"/>
  <text x="300" y="355" font-size="13" fill="#546E7A">02/06 02:00</text>
  <text x="460" y="355" font-size="13" fill="#1A2332">Água Bloco A Jun/26</text>
  <text x="620" y="355" font-size="13" fill="#546E7A">Água – Bloco A</text>
  <rect x="790" y="341" width="88" height="22" rx="11" fill="#E3F2FD"/>
  <text x="834" y="356" text-anchor="middle" font-size="11" font-weight="600" fill="#1565C0">AUTOMÁTICO</text>
  <text x="900" y="355" font-size="13" fill="#1A2332">6</text>
  <text x="970" y="355" font-size="13" fill="#1A2332">1.234,50</text>
  <rect x="1090" y="341" width="70" height="22" rx="11" fill="#E8F5E9"/>
  <text x="1125" y="356" text-anchor="middle" font-size="11" font-weight="600" fill="#2E7D32">SUCESSO</text>

  <!-- Row 3 — ERRO (expandable) — highlighted -->
  <line x1="280" y1="376" x2="1260" y2="376" stroke="#F0F2F5" stroke-width="1"/>
  <rect x="280" y="377" width="980" height="47" fill="#FFF8F8"/>
  <text x="300" y="403" font-size="13" fill="#546E7A">01/06 02:00</text>
  <text x="460" y="403" font-size="13" fill="#1A2332">Manutenção Jun/26</text>
  <text x="620" y="403" font-size="13" fill="#546E7A">Manutenção Predial</text>
  <rect x="790" y="389" width="88" height="22" rx="11" fill="#E3F2FD"/>
  <text x="834" y="404" text-anchor="middle" font-size="11" font-weight="600" fill="#1565C0">AUTOMÁTICO</text>
  <text x="900" y="403" font-size="13" fill="#B0BEC5">—</text>
  <text x="970" y="403" font-size="13" fill="#B0BEC5">—</text>
  <rect x="1090" y="389" width="60" height="22" rx="11" fill="#FCE4EC"/>
  <text x="1120" y="404" text-anchor="middle" font-size="11" font-weight="600" fill="#C62828">ERRO</text>
  <!-- expand icon -->
  <text x="1200" y="404" font-size="14" fill="#546E7A">▾</text>

  <!-- Error detail row (expanded) -->
  <rect x="280" y="424" width="980" height="52" fill="#FFF3F3"/>
  <line x1="296" y1="424" x2="296" y2="476" stroke="#C62828" stroke-width="3"/>
  <text x="316" y="442" font-size="12" font-weight="600" fill="#C62828">Erro ao ratear despesa #4521:</text>
  <text x="316" y="460" font-size="12" fill="#546E7A">IllegalArgumentException: Nenhum coeficiente vigente encontrado para grupo 3 em 2026-06-01. Verifique os coeficientes cadastrados.</text>

  <!-- Row 4 — RECALCULO SUCESSO -->
  <line x1="280" y1="476" x2="1260" y2="476" stroke="#F0F2F5" stroke-width="1"/>
  <text x="300" y="503" font-size="13" fill="#546E7A">31/05 14:32</text>
  <text x="460" y="503" font-size="13" fill="#1A2332">Cond. Geral Mai/26</text>
  <text x="620" y="503" font-size="13" fill="#546E7A">Condomínio Geral</text>
  <rect x="790" y="489" width="80" height="22" rx="11" fill="#FFF9C4"/>
  <text x="830" y="504" text-anchor="middle" font-size="11" font-weight="600" fill="#F57F17">RECÁLCULO</text>
  <text x="900" y="503" font-size="13" fill="#1A2332">24</text>
  <text x="970" y="503" font-size="13" fill="#1A2332">18.450,00</text>
  <rect x="1090" y="489" width="70" height="22" rx="11" fill="#E8F5E9"/>
  <text x="1125" y="504" text-anchor="middle" font-size="11" font-weight="600" fill="#2E7D32">SUCESSO</text>

  <!-- Row 5 — MANUAL -->
  <line x1="280" y1="524" x2="1260" y2="524" stroke="#F0F2F5" stroke-width="1"/>
  <text x="300" y="551" font-size="13" fill="#546E7A">30/05 10:15</text>
  <text x="460" y="551" font-size="13" fill="#1A2332">Garagens Mai/26</text>
  <text x="620" y="551" font-size="13" fill="#546E7A">Garagens</text>
  <rect x="790" y="537" width="64" height="22" rx="11" fill="#E8F5E9"/>
  <text x="822" y="552" text-anchor="middle" font-size="11" font-weight="600" fill="#2E7D32">MANUAL</text>
  <text x="900" y="551" font-size="13" fill="#1A2332">32</text>
  <text x="970" y="551" font-size="13" fill="#1A2332">5.600,00</text>
  <rect x="1090" y="537" width="70" height="22" rx="11" fill="#E8F5E9"/>
  <text x="1125" y="552" text-anchor="middle" font-size="11" font-weight="600" fill="#2E7D32">SUCESSO</text>

  <!-- Row 6 — PARCIAL -->
  <line x1="280" y1="572" x2="1260" y2="572" stroke="#F0F2F5" stroke-width="1"/>
  <text x="300" y="599" font-size="13" fill="#546E7A">29/05 02:00</text>
  <text x="460" y="599" font-size="13" fill="#1A2332">Lote Mai/26</text>
  <text x="620" y="599" font-size="13" fill="#546E7A">Múltiplos grupos</text>
  <rect x="790" y="585" width="88" height="22" rx="11" fill="#E3F2FD"/>
  <text x="834" y="600" text-anchor="middle" font-size="11" font-weight="600" fill="#1565C0">AUTOMÁTICO</text>
  <text x="900" y="599" font-size="13" fill="#1A2332">58 / 60</text>
  <text x="970" y="599" font-size="13" fill="#1A2332">32.100,00</text>
  <rect x="1085" y="585" width="72" height="22" rx="11" fill="#FFF9C4"/>
  <text x="1121" y="600" text-anchor="middle" font-size="11" font-weight="600" fill="#F57F17">PARCIAL</text>

  <line x1="280" y1="620" x2="1260" y2="620" stroke="#F0F2F5" stroke-width="1"/>
  <text x="770" y="650" text-anchor="middle" font-size="13" fill="#B0BEC5">Mostrando 6 de 147 registos</text>

  <!-- Pagination -->
  <rect x="280" y="716" width="980" height="44" rx="10" fill="white" filter="url(#shadow)"/>
  <text x="300" y="743" font-size="12" fill="#78909C">Página 1 de 25</text>
  <!-- page buttons -->
  <rect x="1060" y="726" width="32" height="24" rx="4" fill="#ECEFF1"/>
  <text x="1076" y="743" text-anchor="middle" font-size="12" fill="#546E7A">‹</text>
  <rect x="1100" y="726" width="32" height="24" rx="4" fill="#1976D2"/>
  <text x="1116" y="743" text-anchor="middle" font-size="12" fill="white">1</text>
  <rect x="1140" y="726" width="32" height="24" rx="4" fill="#ECEFF1"/>
  <text x="1156" y="743" text-anchor="middle" font-size="12" fill="#546E7A">2</text>
  <rect x="1180" y="726" width="32" height="24" rx="4" fill="#ECEFF1"/>
  <text x="1196" y="743" text-anchor="middle" font-size="12" fill="#546E7A">3</text>
  <text x="1220" y="743" font-size="12" fill="#546E7A">...</text>
  <rect x="1228" y="726" width="32" height="24" rx="4" fill="#ECEFF1"/>
  <text x="1244" y="743" text-anchor="middle" font-size="12" fill="#546E7A">›</text>
</svg>
